<?xml version="1.0" standalone="no"?>
<!DOCTYPE svg PUBLIC "-//W3C//DTD SVG 20010904//EN"
 "http://www.w3.org/TR/2001/REC-SVG-20010904/DTD/svg10.dtd">
<svg version="1.0" xmlns="http://www.w3.org/2000/svg"
 width="512.000000pt" height="512.000000pt" viewBox="0 0 512.000000 512.000000"
 preserveAspectRatio="xMidYMid meet">
<metadata>
Created by potrace 1.14, written by Peter Selinger 2001-2017
</metadata>
<g transform="translate(0.000000,512.000000) scale(0.100000,-0.100000)"
fill="#000000" stroke="none">
<path d="M78 4049 c-10 -5 -18 -15 -18 -20 0 -6 69 -167 154 -357 445 -1003
516 -1163 525 -1179 5 -10 31 -67 57 -128 26 -60 61 -141 79 -180 18 -38 56
-124 85 -190 29 -66 66 -148 81 -183 16 -34 29 -64 29 -66 0 -2 20 -47 45
-100 24 -53 47 -107 51 -121 3 -14 10 -25 15 -25 5 0 9 -6 9 -14 0 -7 17 -50
38 -95 45 -99 62 -103 103 -23 15 29 28 56 29 60 6 17 20 52 50 117 17 39 38
84 45 100 19 45 54 124 80 180 94 211 128 293 132 325 4 31 -16 84 -132 346
-76 170 -149 334 -163 364 -14 30 -26 57 -27 60 -4 13 -286 650 -337 760 -11
25 -45 101 -76 170 -30 69 -64 138 -75 154 -38 54 -55 56 -424 56 -211 0 -345
-4 -355 -11z"/>
<path d="M2725 4053 c-35 -9 -47 -26 -92 -123 -51 -109 -41 -86 -168 -375 -53
-121 -105 -238 -115 -260 -44 -96 -120 -266 -120 -270 0 -2 -15 -36 -34 -77
-64 -139 -86 -189 -111 -249 -14 -33 -39 -90 -56 -127 -35 -75 -134 -297 -184
-412 -18 -41 -46 -104 -62 -140 -51 -111 -69 -152 -108 -240 -49 -113 -57
-131 -100 -225 -20 -44 -48 -107 -62 -140 -14 -33 -30 -69 -36 -80 -6 -11 -12
-24 -13 -30 -1 -5 -23 -55 -49 -110 -53 -112 -64 -158 -44 -171 17 -11 676
-12 717 -2 36 10 55 38 112 168 23 52 50 113 60 135 10 22 37 81 58 130 22 50
54 122 72 160 36 78 52 115 56 130 1 6 23 55 49 110 25 55 50 109 55 120 4 11
17 40 28 65 12 25 39 86 60 135 22 50 54 120 71 158 17 37 31 69 31 72 0 2 18
43 40 90 22 47 40 88 40 90 0 3 15 37 34 78 19 40 59 129 89 197 30 69 67 152
82 185 62 139 78 172 96 211 10 22 19 43 19 47 0 4 16 42 36 84 20 43 42 92
49 108 7 17 32 70 54 118 23 49 41 91 41 95 0 3 11 28 24 56 96 206 116 259
106 277 -8 12 -68 14 -357 16 -191 0 -357 -1 -368 -4z"/>
<path d="M3672 4053 c-21 -4 -82 -83 -82 -104 0 -4 -16 -43 -36 -86 -20 -43
-42 -91 -49 -108 -27 -60 -66 -146 -89 -197 -28 -62 -60 -135 -71 -163 -8 -20
-7 -46 2 -55 2 -3 171 -6 374 -6 379 -2 422 -5 473 -31 91 -47 133 -160 98
-265 -17 -53 -53 -92 -110 -119 -43 -21 -56 -22 -535 -23 -396 -1 -496 -4
-513 -15 -28 -18 -22 -6 -198 -405 -102 -230 -118 -278 -96 -291 6 -4 298 -7
649 -7 473 -1 648 -4 674 -13 118 -40 175 -179 122 -294 -21 -43 -78 -101
-109 -108 -6 -1 -27 -6 -47 -11 -20 -5 -342 -10 -715 -10 -373 -1 -690 -3
-703 -6 -27 -6 -40 -21 -42 -51 -6 -85 -3 -606 4 -627 5 -16 19 -30 35 -35 32
-11 1443 -10 1522 1 30 4 73 12 95 18 22 6 45 11 50 13 6 1 23 7 38 13 16 7
31 12 34 12 15 0 174 85 199 106 15 13 30 24 34 24 17 0 165 160 206 222 171
257 208 590 95 868 -32 79 -108 210 -122 210 -24 0 4 65 58 135 11 14 51 89
53 97 0 4 8 24 16 43 29 71 56 211 59 310 6 257 -87 494 -265 675 -47 47 -112
103 -145 125 -96 64 -230 123 -315 139 -14 3 -36 8 -50 12 -29 8 -564 15 -598
7z"/>
</g>
</svg>
