<?xml version="1.0" encoding="UTF-8" standalone="no"?>
<!-- MGSimard - Created with Inkscape (http://www.inkscape.org/) -->

<svg
   width="187.32768mm"
   height="146.29906mm"
   viewBox="0 0 187.32768 146.29906"
   version="1.1"
   id="svg1"
   xml:space="preserve"
   xmlns="http://www.w3.org/2000/svg"
   xmlns:svg="http://www.w3.org/2000/svg"><defs
     id="defs1" /><g
     id="layer1"
     transform="translate(245.46001,-350.4536)"><g
       id="g25"
       style="display:inline"><path
         style="fill:#fbc335;fill-opacity:1;stroke-width:0.586999;stroke-linecap:round;stroke-linejoin:round"
         d="M 9.2569703,452.75627 V 335.32841 L 19.61183,306.45723 h 65.65196 l 14.098248,16.83086 h 90.232422 l 6.61458,6.61458 v 122.8536 z"
         id="path19"
         transform="translate(-254.52917,43.996372)" /><rect
         style="fill:#ffffff;fill-opacity:1;stroke:#dfdfdf;stroke-width:2.11667;stroke-linecap:butt;stroke-linejoin:miter;stroke-dasharray:none;stroke-opacity:1"
         id="rect25"
         width="172.49576"
         height="116.22264"
         x="-186.83371"
         y="382.90549"
         transform="rotate(6.7596255)" /><rect
         style="fill:#ffffff;fill-opacity:1;stroke:#dfdfdf;stroke-width:2.11667;stroke-linecap:butt;stroke-linejoin:miter;stroke-dasharray:none;stroke-opacity:1;paint-order:normal"
         id="rect24"
         width="172.49576"
         height="116.22264"
         x="-240.85725"
         y="371.17545" /><path
         style="fill:#ffdb6e;fill-opacity:1;stroke-width:0.586999;stroke-linecap:round;stroke-linejoin:round"
         d="m 196.20904,452.75626 -186.9520597,10e-6 -9.4e-6,-107.3737 6.6145831,-6.61458 H 89.91697 l 9.445068,-12.04032 h 90.232422 l 6.61458,6.61458 z"
         id="path20"
         transform="translate(-254.52917,43.996372)" /><path
         d="m -155.16709,370.72404 -9.44542,12.04009 h -74.04509 l -6.61459,6.61459 v 107.3738 h 4.92322 V 393.43635 l 4.23333,-4.23333 h 73.62083 l 9.44489,-12.04113 h 94.553925 l -6.43889,-6.43785 z"
         style="fill:#ffedb0;fill-opacity:1;stroke-width:0.586999;stroke-linecap:round;stroke-linejoin:round"
         id="path21" /></g></g></svg>
