<?xml version="1.0" encoding="UTF-8" standalone="no"?>
<!-- MGSimard - Created with Inkscape (http://www.inkscape.org/) -->

<svg
   width="101.75464mm"
   height="111.3204mm"
   viewBox="0 0 101.75464 111.3204"
   version="1.1"
   id="svg1"
   xml:space="preserve"
   xmlns="http://www.w3.org/2000/svg"
   xmlns:svg="http://www.w3.org/2000/svg"><defs
     id="defs1" /><g
     id="layer1"
     transform="translate(-391.80787,-501.72493)"><g
       id="g62"><path
         style="display:inline;fill:#ffffff;fill-opacity:1;stroke:#000000;stroke-width:4.02749;stroke-dasharray:none;stroke-opacity:1"
         id="path17"
         width="90.363823"
         height="103.83422"
         x="393.82162"
         y="507.19739"
         d="m 398.05496,507.19739 h 81.89715 l 4.23334,4.23333 0,95.36756 -4.23334,4.23333 h -81.89715 l -4.23334,-4.23333 v -95.36756 z"
         transform="translate(7.3633063)" /><path
         style="display:inline;fill:#ffffff;fill-opacity:1;stroke:#000000;stroke-width:4.02749;stroke-dasharray:none;stroke-opacity:1"
         id="rect14"
         width="90.363823"
         height="103.83422"
         x="393.82162"
         y="507.19739"
         d="m 398.05496,507.19739 h 81.89715 l 4.23334,4.23333 0,95.36756 -4.23334,4.23333 h -81.89715 l -4.23334,-4.23333 v -95.36756 z" /><path
         d="m 402.99917,526.84691 v 3.96875 h 21.96042 v -3.96875 z m 48.15417,0 v 3.96875 h 3.96875 v -3.96875 z m 8.06979,0 v 3.96875 h 11.90625 v -3.96875 z m -56.22396,7.48327 v 3.96875 h 21.96042 v -3.96875 z m 0,13.28342 v 3.96875 h 21.96042 v -3.96875 z m 0,10.84792 v 3.96875 h 68.13021 v -3.96875 z m 0,6.61458 v 3.96875 h 68.13021 v -3.96875 z m 0,6.61459 v 3.96875 h 68.13021 v -3.96875 z m 0,6.61458 v 3.96875 h 68.13021 v -3.96875 z m 0,10.98331 v 3.96875 h 21.96042 v -3.96875 z m 0,7.48326 v 3.96875 h 21.96042 v -3.96875 z"
         style="display:inline;stroke-width:4.32622"
         id="path33" /><g
         id="g49"><path
           d="m 399.94871,501.72493 c -1.44661,-3.7e-4 -2.61947,3.32937 -2.61947,7.43676 0,4.10737 1.17286,7.43712 2.61947,7.43675 h 4.86431 c 0.71803,-2.2e-4 1.36812,-0.82246 1.84123,-2.15129 h -1.84123 c -1.02805,-1.4e-4 -1.86143,-2.36655 -1.86139,-5.28546 0.003,-1.55434 0.24761,-3.02567 0.66766,-4.0225 0.33323,-0.80631 0.75592,-1.25332 1.19373,-1.26245 0.44208,8.1e-4 0.86964,0.44834 1.20612,1.26245 h 0.99478 c -0.4662,-2.052 -1.27695,-3.41398 -2.2009,-3.41426 z m 11.57553,0 c -1.44662,-3.7e-4 -2.61948,3.32937 -2.61948,7.43676 0,4.10737 1.17286,7.43712 2.61948,7.43675 h 4.8643 c 0.71803,-2.2e-4 1.36813,-0.82246 1.84123,-2.15129 h -1.84123 c -1.02805,-1.4e-4 -1.86143,-2.36655 -1.86139,-5.28546 0.003,-1.55434 0.24761,-3.02567 0.66766,-4.0225 0.33323,-0.80631 0.75592,-1.25332 1.19373,-1.26245 0.44208,8.1e-4 0.86964,0.44834 1.20613,1.26245 h 0.99477 c -0.4662,-2.052 -1.27694,-3.41398 -2.2009,-3.41426 z m 12.57029,0 c -1.44662,-3.7e-4 -2.61948,3.32936 -2.61948,7.43676 0,4.10738 1.17286,7.43712 2.61948,7.43675 h 4.8643 c 0.71803,-2.2e-4 1.36813,-0.82245 1.84123,-2.15129 h -1.84123 c -1.02805,-1.4e-4 -1.86143,-2.36654 -1.86139,-5.28546 0.003,-1.55434 0.24761,-3.02567 0.66766,-4.0225 0.33324,-0.80631 0.75592,-1.25332 1.19373,-1.26245 0.44208,8.1e-4 0.86964,0.44834 1.20613,1.26245 h 0.99477 c -0.4662,-2.052 -1.27694,-3.41398 -2.2009,-3.41426 z m 12.57029,0 c -1.44662,-3.7e-4 -2.61948,3.32935 -2.61948,7.43676 0,4.10739 1.17286,7.43712 2.61948,7.43675 h 4.8643 c 0.71804,-2.2e-4 1.36813,-0.82245 1.84123,-2.15129 h -1.84123 c -1.02805,-1.4e-4 -1.86142,-2.36654 -1.86138,-5.28546 0.003,-1.55434 0.24761,-3.02567 0.66766,-4.0225 0.33323,-0.80631 0.75591,-1.25332 1.19372,-1.26245 0.44208,8.1e-4 0.86964,0.44834 1.20613,1.26245 h 0.99477 c -0.46619,-2.05201 -1.27694,-3.41398 -2.2009,-3.41426 z m 11.57552,0 c -1.44662,-3.7e-4 -2.61948,3.32934 -2.61948,7.43676 0,4.1074 1.17286,7.43712 2.61948,7.43675 h 4.8643 c 0.71804,-2.2e-4 1.36813,-0.82245 1.84123,-2.15129 h -1.84123 c -1.02805,-1.4e-4 -1.86142,-2.36653 -1.86138,-5.28546 0.003,-1.55435 0.24761,-3.02566 0.66766,-4.0225 0.33323,-0.80631 0.75591,-1.25332 1.19372,-1.26245 0.44209,8.1e-4 0.86964,0.44834 1.20613,1.26245 h 0.99477 c -0.46619,-2.05201 -1.27693,-3.41398 -2.2009,-3.41426 z m 12.57029,0 c -1.44662,-3.7e-4 -2.61948,3.32934 -2.61948,7.43676 0,4.10741 1.17286,7.43712 2.61948,7.43675 h 4.8643 c 0.71804,-2.2e-4 1.36813,-0.82244 1.84124,-2.15129 h -1.84124 c -1.02805,-1.4e-4 -1.86142,-2.36653 -1.86138,-5.28546 0.003,-1.55435 0.24761,-3.02566 0.66766,-4.0225 0.33323,-0.80631 0.75591,-1.25332 1.19372,-1.26245 0.44209,8.1e-4 0.86965,0.44834 1.20613,1.26245 h 0.99477 c -0.46619,-2.05202 -1.27693,-3.41398 -2.2009,-3.41426 z m 13.56507,0 c -1.44663,-3.7e-4 -2.61948,3.32933 -2.61948,7.43676 0,4.10741 1.17285,7.43712 2.61948,7.43675 h 4.8643 c 0.71804,-2.2e-4 1.36812,-0.82244 1.84123,-2.15129 H 479.24 c -1.02806,-1.4e-4 -1.86143,-2.36652 -1.86139,-5.28546 0.003,-1.55435 0.24761,-3.02566 0.66766,-4.0225 0.33324,-0.80631 0.75591,-1.25332 1.19373,-1.26245 0.44208,8.1e-4 0.86964,0.44834 1.20613,1.26245 h 0.99477 c -0.4662,-2.05202 -1.27693,-3.41398 -2.2009,-3.41426 z"
           style="fill:#000000;fill-opacity:1;stroke-width:4.02749"
           id="path62" /><path
           d="m 404.81302,503.87674 c -0.43781,0.009 -0.8605,0.45614 -1.19373,1.26245 h 2.39985 c -0.33648,-0.81411 -0.76404,-1.26164 -1.20612,-1.26245 z m 11.57552,0 c -0.43781,0.009 -0.8605,0.45614 -1.19373,1.26245 h 2.39986 c -0.33649,-0.81411 -0.76405,-1.26164 -1.20613,-1.26245 z m 12.57029,0 c -0.43782,0.009 -0.86049,0.45614 -1.19373,1.26245 h 2.39986 c -0.33649,-0.81411 -0.76404,-1.26164 -1.20613,-1.26245 z m 12.57029,0 c -0.43781,0.009 -0.86049,0.45614 -1.19372,1.26245 h 2.39985 c -0.33648,-0.81411 -0.76405,-1.26164 -1.20613,-1.26245 z m 11.57552,0 c -0.43781,0.009 -0.86049,0.45614 -1.19372,1.26245 h 2.39985 c -0.33648,-0.81411 -0.76404,-1.26164 -1.20613,-1.26245 z m 12.57029,0 c -0.43781,0.009 -0.86049,0.45614 -1.19372,1.26245 h 2.39985 c -0.33648,-0.81411 -0.76404,-1.26164 -1.20613,-1.26245 z m 13.56507,0 c -0.43782,0.009 -0.86049,0.45614 -1.19373,1.26245 h 2.39986 c -0.33649,-0.81411 -0.76405,-1.26164 -1.20613,-1.26245 z"
           style="stroke-width:2.8623"
           id="path61" /></g></g></g></svg>
