<?xml version="1.0" encoding="UTF-8" standalone="no"?>
<!-- MGSimard - Created with Inkscape (http://www.inkscape.org/) -->

<svg
   width="147.68846mm"
   height="156.48552mm"
   viewBox="0 0 147.68846 156.48552"
   version="1.1"
   id="svg1"
   xml:space="preserve"
   sodipodi:docname="asfasd.svg"
   inkscape:version="1.3.2 (091e20e, 2023-11-25, custom)"
   xmlns:inkscape="http://www.inkscape.org/namespaces/inkscape"
   xmlns:sodipodi="http://sodipodi.sourceforge.net/DTD/sodipodi-0.dtd"
   xmlns:xlink="http://www.w3.org/1999/xlink"
   xmlns="http://www.w3.org/2000/svg"
   xmlns:svg="http://www.w3.org/2000/svg"><sodipodi:namedview
     id="namedview1"
     pagecolor="#ffffff"
     bordercolor="#000000"
     borderopacity="0.25"
     inkscape:showpageshadow="2"
     inkscape:pageopacity="0.0"
     inkscape:pagecheckerboard="0"
     inkscape:deskcolor="#d1d1d1"
     inkscape:document-units="mm"
     inkscape:zoom="0.69800963"
     inkscape:cx="719.90411"
     inkscape:cy="46.560962"
     inkscape:window-width="2560"
     inkscape:window-height="1361"
     inkscape:window-x="-9"
     inkscape:window-y="-9"
     inkscape:window-maximized="1"
     inkscape:current-layer="svg1"><inkscape:page
       x="1.6567215e-07"
       y="-9.8971359e-06"
       width="147.68846"
       height="156.48552"
       id="page1"
       margin="0"
       bleed="0" /></sodipodi:namedview><defs
     id="defs1"><inkscape:path-effect
       effect="fillet_chamfer"
       id="path-effect20"
       is_visible="true"
       lpeversion="1"
       nodesatellites_param="F,0,0,1,0,3.9355546,0,1 @ F,0,0,1,0,0,0,1 @ F,0,0,1,0,0,0,1 @ F,0,0,1,0,0,0,1"
       radius="0"
       unit="px"
       method="auto"
       mode="F"
       chamfer_steps="1"
       flexible="false"
       use_knot_distance="true"
       apply_no_radius="true"
       apply_with_radius="true"
       only_selected="true"
       hide_knots="false" /><inkscape:path-effect
       effect="fillet_chamfer"
       id="path-effect19"
       is_visible="true"
       lpeversion="1"
       nodesatellites_param="F,0,0,1,0,0,0,1 @ F,0,0,1,0,0,0,1 @ F,0,0,1,0,0,0,1 @ F,0,0,1,0,0,0,1 @ F,0,0,1,0,0,0,1 @ F,0,0,1,0,0,0,1 @ F,0,0,1,0,0,0,1 @ F,0,0,1,0,0,0,1 @ F,0,0,1,0,0,0,1 @ F,0,0,1,0,0,0,1 @ F,0,0,1,0,0,0,1 @ F,0,0,1,0,0,0,1"
       radius="0"
       unit="px"
       method="auto"
       mode="F"
       chamfer_steps="1"
       flexible="false"
       use_knot_distance="true"
       apply_no_radius="true"
       apply_with_radius="true"
       only_selected="false"
       hide_knots="false" /><linearGradient
       id="linearGradient18"
       inkscape:collect="always"><stop
         style="stop-color:#ffffff;stop-opacity:1;"
         offset="0"
         id="stop18" /><stop
         style="stop-color:#ffffff;stop-opacity:1;"
         offset="1"
         id="stop19" /></linearGradient><inkscape:path-effect
       effect="fillet_chamfer"
       id="path-effect16"
       is_visible="true"
       lpeversion="1"
       nodesatellites_param="F,0,0,1,0,4.027,0,1 @ F,0,0,1,0,4.027,0,1 @ F,0,0,1,0,4.027,0,1 @ F,0,0,1,0,4.027,0,1"
       radius="4.027"
       unit="mm"
       method="auto"
       mode="F"
       chamfer_steps="1"
       flexible="false"
       use_knot_distance="true"
       apply_no_radius="true"
       apply_with_radius="true"
       only_selected="false"
       hide_knots="false" /><inkscape:path-effect
       effect="fillet_chamfer"
       id="path-effect6"
       is_visible="true"
       lpeversion="1"
       nodesatellites_param="F,0,0,1,0,3.175,0,1 @ F,0,0,1,0,3.175,0,1 @ F,0,0,1,0,3.175,0,1 @ F,0,0,1,0,2.4041925,0,1 @ F,0,0,1,0,3.554054,0,1 @ F,0,0,1,0,3.175,0,1"
       radius="12"
       unit="px"
       method="auto"
       mode="F"
       chamfer_steps="1"
       flexible="false"
       use_knot_distance="true"
       apply_no_radius="true"
       apply_with_radius="true"
       only_selected="true"
       hide_knots="false" /><linearGradient
       id="linearGradient5"
       inkscape:collect="always"><stop
         style="stop-color:#7e7e7e;stop-opacity:1;"
         offset="0"
         id="stop2" /><stop
         style="stop-color:#000000;stop-opacity:1;"
         offset="1"
         id="stop5" /></linearGradient><linearGradient
       id="linearGradient9"
       inkscape:collect="always"><stop
         style="stop-color:#01ff02;stop-opacity:1;"
         offset="0"
         id="stop9" /><stop
         style="stop-color:#017d02;stop-opacity:1;"
         offset="1"
         id="stop10" /></linearGradient><inkscape:path-effect
       effect="fillet_chamfer"
       id="path-effect7"
       is_visible="true"
       lpeversion="1"
       nodesatellites_param="F,0,0,1,0,3.175,0,1 @ F,0,0,1,0,3.175,0,1 @ F,0,0,1,0,3.175,0,1 @ F,0,0,1,0,3.175,0,1 @ F,0,0,1,0,3.175,0,1 @ F,0,0,1,0,3.175,0,1 @ F,0,0,1,0,3.175,0,1 @ F,0,0,1,0,3.175,0,1"
       radius="12"
       unit="px"
       method="auto"
       mode="F"
       chamfer_steps="1"
       flexible="false"
       use_knot_distance="true"
       apply_no_radius="true"
       apply_with_radius="true"
       only_selected="false"
       hide_knots="false" /><inkscape:path-effect
       effect="fillet_chamfer"
       id="path-effect5"
       is_visible="true"
       lpeversion="1"
       nodesatellites_param="F,0,0,1,0,3.175,0,1 @ F,0,0,1,0,3.175,0,1 @ F,0,0,1,0,3.175,0,1 @ F,0,0,1,0,3.175,0,1 @ F,0,0,1,0,3.175,0,1 @ F,0,0,1,0,3.175,0,1 @ F,0,0,1,0,3.175,0,1 @ F,0,0,1,0,3.175,0,1"
       radius="12"
       unit="px"
       method="auto"
       mode="F"
       chamfer_steps="1"
       flexible="false"
       use_knot_distance="true"
       apply_no_radius="true"
       apply_with_radius="true"
       only_selected="false"
       hide_knots="false" /><inkscape:path-effect
       effect="fillet_chamfer"
       id="path-effect4"
       is_visible="true"
       lpeversion="1"
       nodesatellites_param="F,0,0,1,0,3.175,0,1 @ F,0,0,1,0,3.175,0,1 @ F,0,0,1,0,3.175,0,1 @ F,0,0,1,0,3.175,0,1 @ F,0,0,1,0,3.175,0,1 @ F,0,0,1,0,3.175,0,1"
       radius="12"
       unit="px"
       method="auto"
       mode="F"
       chamfer_steps="1"
       flexible="false"
       use_knot_distance="true"
       apply_no_radius="true"
       apply_with_radius="true"
       only_selected="false"
       hide_knots="false" /><linearGradient
       id="linearGradient3"
       inkscape:collect="always"><stop
         style="stop-color:#ffffff;stop-opacity:1;"
         offset="0"
         id="stop3" /><stop
         style="stop-color:#c0c0c0;stop-opacity:1;"
         offset="1"
         id="stop4" /></linearGradient><linearGradient
       inkscape:collect="always"
       xlink:href="#linearGradient3"
       id="linearGradient4"
       x1="252.44995"
       y1="-68.608765"
       x2="263.82156"
       y2="-37.147289"
       gradientUnits="userSpaceOnUse" /><linearGradient
       inkscape:collect="always"
       xlink:href="#linearGradient9"
       id="linearGradient10"
       x1="231.17731"
       y1="-45.699394"
       x2="231.31131"
       y2="-36.854347"
       gradientUnits="userSpaceOnUse"
       gradientTransform="translate(-204.19187,170.01322)" /><linearGradient
       inkscape:collect="always"
       xlink:href="#linearGradient5"
       id="linearGradient2"
       gradientUnits="userSpaceOnUse"
       x1="231.31131"
       y1="-44.761284"
       x2="231.31131"
       y2="-39.668678"
       gradientTransform="matrix(3.9698486,0,0,1,-829.96905,165.44887)" /><radialGradient
       inkscape:collect="always"
       xlink:href="#linearGradient18"
       id="radialGradient19"
       cx="274.46054"
       cy="-119.76273"
       fx="274.46054"
       fy="-119.76273"
       r="42.008118"
       gradientTransform="matrix(1,0,0,0.68727148,0,-37.453222)"
       gradientUnits="userSpaceOnUse" /></defs><path
     style="fill:#818181;fill-opacity:1;stroke:#7f7e7e;stroke-width:4.027;stroke-linecap:round;stroke-linejoin:round;stroke-dasharray:none;stroke-opacity:1"
     d="m 334.98361,-17.428398 12.32995,-9.11345 a 6.2948816,6.2948816 116.76537 0 0 2.55326,-5.062192 v -46.717557 a 3.175,3.175 45 0 0 -3.175,-3.175 H 226.81684 a 9.6371856,9.6371856 161.76538 0 0 -5.72826,1.887192 l -12.32995,9.113448 a 6.294881,6.294881 116.76538 0 0 -2.55326,5.062192 v 46.717559 a 3.175,3.175 45 0 0 3.175,3.175 l 119.87498,0 a 9.6371844,9.6371844 161.76537 0 0 5.72826,-1.887192 z"
     id="path4"
     inkscape:path-effect="#path-effect4"
     inkscape:original-d="M 332.43035,-15.541206 349.86682,-28.42904 V -81.496597 H 223.64184 l -17.43647,12.887832 v 53.067559 z"
     transform="translate(-204.19187,170.01322)" /><path
     style="fill:url(#linearGradient4);fill-opacity:1;stroke:#818080;stroke-width:2.223;stroke-linecap:round;stroke-linejoin:round;stroke-opacity:1"
     id="rect1"
     width="126.22498"
     height="53.067558"
     x="206.20537"
     y="-68.608765"
     ry="4.6154356"
     inkscape:path-effect="#path-effect5"
     sodipodi:type="rect"
     d="m 213.9958,-68.608765 h 110.64412 c 1.7535,0 4.77817,-0.04557 6.10668,1.045251 0.23312,0.191418 0.44702,0.405312 0.63844,0.638435 1.09088,1.328517 1.04531,4.353246 1.04531,6.10675 v 37.486687 c 0,1.753504 0.0456,4.778178 -1.04525,6.10668 -0.19142,0.233126 -0.40531,0.447025 -0.63843,0.638447 -1.32852,1.090875 -4.35325,1.045309 -6.10675,1.045309 l -110.64412,0 c -1.7535,0 -4.77817,0.04557 -6.10668,-1.045251 -0.23312,-0.191418 -0.44702,-0.405312 -0.63844,-0.638435 -1.09088,-1.328517 -1.04531,-4.353246 -1.04531,-6.10675 v -37.486687 c 0,-1.753504 -0.0456,-4.778178 1.04525,-6.10668 0.19142,-0.233126 0.40531,-0.447025 0.63843,-0.638447 1.32852,-1.090875 4.35325,-1.045309 6.10675,-1.045309 z"
     transform="translate(-204.19187,170.01322)" /><path
     style="fill:#c0c0c0;fill-opacity:1;stroke:none;stroke-width:2.223;stroke-linecap:round;stroke-linejoin:round;stroke-opacity:1"
     id="path5"
     width="126.22498"
     height="53.067558"
     x="206.20537"
     y="-68.608765"
     ry="4.6154356"
     inkscape:path-effect="#path-effect7"
     sodipodi:type="rect"
     d="m 213.9958,-68.608765 h 110.64412 c 1.7535,0 4.77817,-0.04557 6.10668,1.045251 0.23312,0.191418 0.44702,0.405312 0.63844,0.638435 1.09088,1.328517 1.04531,4.353246 1.04531,6.10675 v 37.486687 c 0,1.753504 0.0456,4.778178 -1.04525,6.10668 -0.19142,0.233126 -0.40531,0.447025 -0.63843,0.638447 -1.32852,1.090875 -4.35325,1.045309 -6.10675,1.045309 l -110.64412,0 c -1.7535,0 -4.77817,0.04557 -6.10668,-1.045251 -0.23312,-0.191418 -0.44702,-0.405312 -0.63844,-0.638435 -1.09088,-1.328517 -1.04531,-4.353246 -1.04531,-6.10675 v -37.486687 c 0,-1.753504 -0.0456,-4.778178 1.04525,-6.10668 0.19142,-0.233126 0.40531,-0.447025 0.63843,-0.638447 1.32852,-1.090875 4.35325,-1.045309 6.10675,-1.045309 z"
     transform="matrix(0.87563525,0,0,0.67143193,-170.69822,156.18873)" /><rect
     style="fill:url(#linearGradient10);stroke:none;stroke-width:4.02696;stroke-linecap:round;stroke-linejoin:round;stroke-dasharray:none;stroke-opacity:1"
     id="rect8"
     width="13.401582"
     height="12.597486"
     x="20.686687"
     y="120.96343"
     ry="1.6081898" /><rect
     style="fill:url(#linearGradient2);stroke:none;stroke-width:8.02351;stroke-linecap:round;stroke-linejoin:round;stroke-dasharray:none;stroke-opacity:1"
     id="rect2"
     width="53.202251"
     height="12.597486"
     x="62.764763"
     y="116.39909"
     ry="1.6081898" /><path
     style="display:inline;fill:#818181;fill-opacity:1;stroke:#818181;stroke-width:4.027;stroke-linecap:round;stroke-linejoin:round;stroke-dasharray:none;stroke-opacity:1"
     d="m 310.68165,-115.93136 -5.40058,4.60049 c -1.56011,1.32898 -3.54253,2.05888 -5.59195,2.05888 H 197.25063 c -1.7535,0 -3.175,-1.4215 -3.175,-3.175 v -79.70796 c 0,-1.5254 0.66898,-2.97406 1.83018,-3.96323 l 5.69879,-4.85453 c 1.74636,-1.48764 3.96546,-2.30468 6.25955,-2.30468 H 309.9236 c 1.7535,0 3.175,1.4215 3.175,3.175 v 78.93715 c 0,2.01446 -0.88346,3.92757 -2.41695,5.23388 z"
     id="path6"
     inkscape:path-effect="#path-effect6;#path-effect19"
     inkscape:original-d="m 313.0986,-117.99024 -10.23448,8.71825 H 194.07563 v -85.28715 l 10.23447,-8.71825 h 108.7885 z"
     transform="translate(-180.69806,205.29087)" /><rect
     style="fill:#ffffff;fill-opacity:1;stroke-width:4.02696;stroke-linecap:round;stroke-linejoin:round"
     id="rect5"
     width="107.11329"
     height="83.880028"
     x="15.052715"
     y="12.668038"
     ry="4.6154356" /><path
     style="fill:#bfbfbf;fill-opacity:1;stroke-width:3.85165;stroke-linecap:round;stroke-linejoin:round"
     id="rect16"
     width="103.79472"
     height="79.189034"
     x="222.56316"
     y="-152.65419"
     ry="0"
     inkscape:path-effect="#path-effect20"
     sodipodi:type="rect"
     d="m 226.49871,-152.65419 h 99.85917 v 79.189033 H 222.56316 v -75.253483 a 3.9355546,3.9355546 135 0 1 3.93555,-3.93555 z"
     transform="translate(-204.19187,170.01322)" /><path
     style="fill:url(#radialGradient19);stroke:none;stroke-width:3.5382;stroke-linecap:round;stroke-linejoin:round;stroke-dasharray:none;stroke-opacity:1"
     id="rect15"
     width="84.016235"
     height="57.741962"
     x="232.45241"
     y="-148.63371"
     ry="0"
     inkscape:path-effect="#path-effect16"
     sodipodi:type="rect"
     d="m 236.47941,-148.63371 h 75.96223 a 4.027,4.027 45 0 1 4.027,4.027 l 0,49.68796 a 4.027,4.027 135 0 1 -4.027,4.027 h -75.96223 a 4.027,4.027 45 0 1 -4.027,-4.027 l 0,-49.68796 a 4.027,4.027 135 0 1 4.027,-4.027 z"
     transform="matrix(0.93601476,0,0,1.1083162,-186.65878,189.25343)" /><rect
     style="fill:#818181;fill-opacity:1;stroke:none;stroke-width:4.75471;stroke-linecap:round;stroke-linejoin:round;stroke-dasharray:none;stroke-opacity:1"
     id="rect18"
     width="73.129448"
     height="58.688385"
     x="30.920101"
     y="24.520287"
     ry="2.6360805" /><rect
     style="fill:#000000;fill-opacity:1;stroke:none;stroke-width:4.1889;stroke-linecap:round;stroke-linejoin:round;stroke-dasharray:none;stroke-opacity:1"
     id="rect13"
     width="68.27211"
     height="48.792301"
     x="30.920101"
     y="29.46833"
     ry="2.1915824" /><rect
     style="fill:#57a8a8;fill-opacity:1;stroke:none;stroke-width:3.82252;stroke-linecap:round;stroke-linejoin:round;stroke-dasharray:none;stroke-opacity:1"
     id="rect17"
     width="63.329556"
     height="43.809464"
     x="35.862667"
     y="34.45118"
     ry="0" /><g
     id="g27"
     transform="translate(-140.31672,168.21944)"><rect
       style="fill:#000000;fill-opacity:1;stroke:none;stroke-width:4.08552;stroke-linecap:round;stroke-linejoin:round;stroke-dasharray:none;stroke-opacity:1"
       id="rect23"
       width="32.331326"
       height="26.40107"
       x="182.48795"
       y="-128.96919"
       ry="0" /><rect
       style="fill:#f5fafa;fill-opacity:1;stroke:none;stroke-width:2.66681;stroke-linecap:round;stroke-linejoin:round;stroke-dasharray:none;stroke-opacity:1"
       id="rect20"
       width="21.710564"
       height="16.751978"
       x="187.71457"
       y="-124.14465"
       ry="0" /><rect
       style="fill:#000000;fill-opacity:1;stroke:none;stroke-width:1.59415;stroke-linecap:round;stroke-linejoin:round;stroke-dasharray:none;stroke-opacity:1"
       id="rect21"
       width="26.937181"
       height="4.8245697"
       x="182.48795"
       y="-128.96921"
       ry="0" /><rect
       style="fill:#818181;fill-opacity:1;stroke:none;stroke-width:1.30848;stroke-linecap:round;stroke-linejoin:round;stroke-dasharray:none;stroke-opacity:1"
       id="rect22"
       width="5.2266312"
       height="16.751961"
       x="182.48795"
       y="-124.14464"
       ry="0" /></g><g
     id="g29"
     transform="translate(-125.92663,215.13679)"><rect
       style="fill:#000000;fill-opacity:1;stroke:none;stroke-width:4.08552;stroke-linecap:round;stroke-linejoin:round;stroke-dasharray:none;stroke-opacity:1"
       id="rect24"
       width="32.331326"
       height="26.40107"
       x="185.2381"
       y="-163.27724"
       ry="0" /><rect
       style="fill:#f5fafa;fill-opacity:1;stroke:none;stroke-width:2.66681;stroke-linecap:round;stroke-linejoin:round;stroke-dasharray:none;stroke-opacity:1"
       id="rect25"
       width="21.710564"
       height="16.751978"
       x="190.46472"
       y="-158.4527"
       ry="0" /><rect
       style="fill:#0000a8;fill-opacity:1;stroke:none;stroke-width:1.59415;stroke-linecap:round;stroke-linejoin:round;stroke-dasharray:none;stroke-opacity:1"
       id="rect26"
       width="26.937181"
       height="4.8245697"
       x="185.2381"
       y="-163.27725"
       ry="0" /><rect
       style="fill:#818181;fill-opacity:1;stroke:none;stroke-width:1.30848;stroke-linecap:round;stroke-linejoin:round;stroke-dasharray:none;stroke-opacity:1"
       id="rect27"
       width="5.2266312"
       height="16.751961"
       x="185.2381"
       y="-158.45268"
       ry="0" /></g></svg>
