<?xml version="1.0" encoding="UTF-8" standalone="no"?>
<!-- Created with Inkscape (http://www.inkscape.org/) -->

<svg
   width="249.2244"
   height="150.00035"
   viewBox="0 0 65.940621 39.687592"
   version="1.1"
   id="svg1"
   xml:space="preserve"
   xmlns="http://www.w3.org/2000/svg"
   xmlns:svg="http://www.w3.org/2000/svg"><defs
     id="defs1" /><g
     id="layer1"
     transform="translate(-2.8220013,-51.292866)"><path
       d="m 51.160589,51.292945 -3.530533,7.9375 h 9.22631 c 2.191854,0 3.96875,1.776894 3.96875,3.96875 0,0.510264 -0.0969,0.997822 -0.272335,1.445907 -0.001,0.003 -0.0021,0.0063 -0.0031,0.0093 -4e-4,10e-4 -6.63e-4,0.0021 -10e-4,0.0031 -0.0399,0.101004 -0.085,0.19936 -0.132809,0.296106 -0.007,0.01435 -0.01337,0.02916 -0.02067,0.04341 -0.0477,0.09374 -0.10026,0.184625 -0.155029,0.273885 -0.009,0.0139 -0.01662,0.02808 -0.02532,0.04186 -0.0535,0.0848 -0.110445,0.167227 -0.170015,0.247531 -0.0142,0.01907 -0.02839,0.03804 -0.04289,0.05684 -0.0576,0.07475 -0.117731,0.147157 -0.180351,0.217557 -0.0187,0.02096 -0.03723,0.04197 -0.05633,0.06253 -0.0626,0.06743 -0.12774,0.132394 -0.19482,0.195337 -0.0226,0.02118 -0.04563,0.04187 -0.06873,0.06253 -0.0671,0.0601 -0.136112,0.118156 -0.207222,0.173633 -0.024,0.01868 -0.04846,0.03664 -0.07286,0.05478 -0.0715,0.0532 -0.144525,0.104573 -0.219625,0.152962 -0.0305,0.01964 -0.06192,0.03803 -0.09302,0.05684 -0.0726,0.04398 -0.145663,0.08724 -0.221175,0.126608 -0.03689,0.01919 -0.0751,0.0362 -0.112655,0.05426 -0.07232,0.03484 -0.144947,0.06923 -0.219625,0.09974 -0.03981,0.01622 -0.08099,0.02949 -0.12144,0.04444 -0.07739,0.02869 -0.154516,0.05774 -0.234094,0.08165 -0.03546,0.01062 -0.07214,0.01826 -0.108004,0.02791 -0.08463,0.02285 -0.169025,0.04575 -0.255798,0.06305 -0.05311,0.01054 -0.107893,0.0164 -0.161747,0.02481 -0.02475,0.0039 -0.04952,0.0075 -0.07441,0.01085 -0.04618,0.0063 -0.0913,0.01597 -0.137976,0.02067 -0.132263,0.01331 -0.266272,0.02067 -0.402043,0.02067 h -11.21637 -1.544091 l -3.531051,7.9375 h 5.075142 11.21637 c 2.191857,0 3.96875,1.776904 3.96875,3.96875 0,0.02391 -0.0031,0.04699 -0.0041,0.0708 -0.0382,2.158838 -1.797176,3.897953 -3.965133,3.897953 H 45.643613 38.132961 v 7.9375 h 18.727022 c 1.379208,-6.18e-4 2.714294,-0.246274 3.965133,-0.689363 3.323406,-1.177259 6.033375,-3.793258 7.254854,-7.248137 0.44328,-1.248438 0.671546,-2.562205 0.682646,-3.886584 v -0.08217 c -0.002,-1.352261 -0.233794,-2.694438 -0.686263,-3.96875 -0.52274,-1.457931 -1.324954,-2.79993 -2.361613,-3.950663 0.005,-0.0052 0.009,-0.01082 0.01344,-0.01602 -0.006,-0.0066 -0.01125,-0.0136 -0.01705,-0.02015 1.036669,-1.150733 1.838884,-2.492732 2.361613,-3.950664 0.45371,-1.274122 0.687011,-2.616268 0.689881,-3.96875 -0.002,-1.352271 -0.233794,-2.694428 -0.686263,-3.96875 -1.220589,-3.452366 -3.927533,-6.067047 -7.24762,-7.245552 -1.252919,-0.444738 -2.590498,-0.691329 -3.972367,-0.691948 z"
       style="display:inline;fill:#211b7b;fill-opacity:1;stroke-width:0.434619;stroke-linecap:round;stroke-linejoin:round"
       id="path12" /><path
       d="m 2.8220013,51.292869 3.5305344,7.9375 3.530534,7.9375 3.5310513,7.9375 3.530534,7.9375 1.35909,3.05562 1.35909,-3.05562 0.81287,-1.82728 2.171444,-4.88291 -0.545703,-1.22731 -3.531051,-7.9375 -3.530534,-7.9375 -3.530534,-7.9375 z m 35.3074067,0 -3.530534,7.9375 -3.530534,7.9375 -3.53105,7.9375 -2.717664,6.11022 v 5.1e-4 l -0.81287,1.82677 -3.530534,7.9375 h 4.342887 5.17e-4 4.342887 5.17e-4 5.17e-4 l 3.530534,-7.9375 3.530534,-7.9375 3.53105,-7.9375 3.530534,-7.9375 3.530534,-7.9375 h -4.343404 z"
       style="display:inline;fill:#000000;fill-opacity:1;stroke-width:1.83251;stroke-linecap:round;stroke-linejoin:round"
       id="path10" /></g></svg>
