<?xml version="1.0" encoding="UTF-8" standalone="no"?>
<!-- Created with Inkscape (http://www.inkscape.org/) -->

<svg
   width="92.467072mm"
   height="92.36982mm"
   viewBox="0 0 92.467072 92.36982"
   version="1.1"
   id="svg1"
   xml:space="preserve"
   xmlns="http://www.w3.org/2000/svg"
   xmlns:svg="http://www.w3.org/2000/svg"><defs
     id="defs1" /><g
     id="layer1"
     transform="translate(-116.81142,-76.551611)"><path
       style="fill:#ffff00;fill-opacity:1;stroke:#a8a857;stroke-width:2.223;stroke-linecap:round;stroke-linejoin:round;stroke-dasharray:none;stroke-opacity:1"
       d="m 258.64477,167.71095 h 66.1875 a 7.358467,7.358467 121.71747 0 0 6.58161,-10.64927 L 297.06316,88.360228 a 5.9531253,5.9531253 180 0 0 -10.64928,0 l -34.35072,68.701452 a 7.358467,7.358467 58.282526 0 0 6.58161,10.64927 z"
       id="path9"
       transform="matrix(1.112424,0,0,1.0890407,-161.49198,-14.933103)" /><path
       d="m 163.04483,100.09622 c -4.41828,-2e-5 -8.00005,3.58175 -8.00003,8.00002 -0.36901,10.71587 3.51551,20.16084 6.89467,30.11754 0.35865,1.05591 1.85206,1.05591 2.21072,0 3.74174,-9.93254 6.76828,-19.42607 6.89467,-30.11754 1e-5,-4.41827 -3.58176,-8.00004 -8.00003,-8.00002 z m 0,41.9039 c -3.58974,7e-5 -6.49979,2.91012 -6.49986,6.49986 7e-5,3.58974 2.91012,6.49978 6.49986,6.49986 3.58994,2.1e-4 6.5003,-2.90992 6.50038,-6.49986 -8e-5,-3.58994 -2.91044,-6.50007 -6.50038,-6.49986 z"
       style="stroke-width:2.14948;stroke-linecap:round;stroke-linejoin:round"
       id="path12" /></g></svg>
